# xmcd
# Track frame offsets:
# 150
# 17850
# 38363
# 55388
# 73302
# 90540
# 106290
# 123465
# 141834
#
# Disc length: 2080 seconds
# Revision: 0
# Processed by: cddbd v1.5.1PL0 Copyright (c) Steve Scherf et al.
# Submitted via: VisiTrax 2.9.10.228 - For more info visit www.synapsa.com
#
DISCID=7a081e09
DTITLE=Various Artist - Hits Monthly Nashville  PHN0108
DYEAR=1900
DGENRE=Karoke
TTITLE0=Jackson, Alan - Where I Come From
TTITLE1=Brooks and Dunn - Only In America
TTITLE2=Hill, Faith - There You'll Be
TTITLE3=Andrews, Jessica - Helplessly, Hopelessly
TTITLE4=Shelton, Blake - Austin
TTITLE5=Diamond Rio - Sweet Summer
TTITLE6=Montgomery, John - Even Then
TTITLE7=Warren Brothers, The - When It Does Hurt
TTITLE8=Gilman, Billy - She's My Girl
EXTD=
EXTT0=
EXTT1=
EXTT2=
EXTT3=
EXTT4=
EXTT5=
EXTT6=
EXTT7=
EXTT8=
PLAYORDER=
